<?xml version="1.0" encoding="UTF-8" standalone="no"?><svg xmlns="http://www.w3.org/2000/svg" xmlns:xlink="http://www.w3.org/1999/xlink" fill="#0e2d3d" height="88.9" preserveAspectRatio="xMidYMid meet" version="1" viewBox="7.2 5.6 85.6 88.9" width="85.6" zoomAndPan="magnify"><g id="change1_1"><path d="M42.54 63.18H58.21V79.22H42.54z"/><path d="M22.81 43.47H38.48V59.51H22.81z"/><path d="M42.54 43.47H58.21V59.51H42.54z"/><path d="M24.29,23.88c1.63,0,2.96-1.33,2.96-2.96V15.8V8.53c0-1.63-1.33-2.96-2.96-2.96c-1.63,0-2.96,1.33-2.96,2.96v7.27v5.11 C21.32,22.55,22.65,23.88,24.29,23.88z"/><path d="M75.71,23.88c1.63,0,2.96-1.33,2.96-2.96V15.8V8.53c0-1.63-1.33-2.96-2.96-2.96c-1.63,0-2.96,1.33-2.96,2.96v7.27v5.11 C72.75,22.55,74.08,23.88,75.71,23.88z"/><path d="M22.81 63.18H38.48V79.22H22.81z"/><path d="M84.73,15.8h-2.83v5.11c0,3.42-2.78,6.19-6.19,6.19c-3.41,0-6.19-2.78-6.19-6.19V15.8H30.48v5.11 c0,3.42-2.78,6.19-6.19,6.19c-3.42,0-6.19-2.78-6.19-6.19V15.8h-2.83c-4.46,0-8.08,3.62-8.08,8.08v62.47 c0,4.46,3.62,8.08,8.08,8.08h69.47c4.46,0,8.08-3.62,8.08-8.08V23.88C92.81,19.42,89.2,15.8,84.73,15.8z M82.85,81.81 c0,1.61-1.45,2.92-3.23,2.92H20.38c-1.79,0-3.23-1.31-3.23-2.92V41.35c0-1.62,1.45-2.93,3.23-2.93h59.23 c1.79,0,3.23,1.31,3.23,2.93V81.81z"/><path d="M63.01 43.47H78.67999999999999V59.51H63.01z"/></g></svg>