<?xml version="1.0" encoding="UTF-8" standalone="no"?><svg xmlns="http://www.w3.org/2000/svg" xmlns:xlink="http://www.w3.org/1999/xlink" fill="#000000" height="25" preserveAspectRatio="xMidYMid meet" version="1" viewBox="90.1 65.4 415.3 463.4" width="23" zoomAndPan="magnify"><g><g id="change1_1"><path d="M 452.398438 463.96875 L 436.8125 454.890625 C 439.21875 447.191406 440.246094 439.28125 439.980469 431.460938 L 457.429688 426.863281 C 460.328125 426.097656 462.074219 423.101562 461.304688 420.210938 L 455.964844 399.972656 C 455.199219 397.082031 452.210938 395.339844 449.316406 396.101562 L 431.863281 400.707031 C 428.226562 393.777344 423.433594 387.410156 417.550781 381.90625 L 426.636719 366.308594 C 428.140625 363.722656 427.257812 360.371094 424.671875 358.867188 L 406.585938 348.335938 C 404.003906 346.832031 400.648438 347.710938 399.140625 350.296875 L 390.058594 365.894531 C 382.367188 363.492188 374.460938 362.464844 366.636719 362.71875 L 362.039062 345.269531 C 361.269531 342.375 358.273438 340.632812 355.382812 341.390625 L 335.152344 346.738281 C 332.257812 347.5 330.515625 350.492188 331.277344 353.390625 L 335.882812 370.835938 C 328.957031 374.464844 322.578125 379.265625 317.078125 385.15625 L 301.480469 376.070312 C 298.890625 374.5625 295.546875 375.449219 294.042969 378.03125 L 283.507812 396.121094 C 282 398.707031 282.878906 402.050781 285.46875 403.5625 L 301.066406 412.644531 C 298.664062 420.339844 297.636719 428.246094 297.894531 436.058594 L 280.441406 440.675781 C 277.558594 441.433594 275.808594 444.421875 276.574219 447.320312 L 281.90625 467.546875 C 282.671875 470.445312 285.664062 472.191406 288.566406 471.425781 L 306.015625 466.808594 C 309.652344 473.742188 314.441406 480.121094 320.328125 485.621094 L 311.242188 501.222656 C 309.742188 503.800781 310.632812 507.15625 313.210938 508.660156 L 331.296875 519.191406 C 333.882812 520.695312 337.234375 519.8125 338.734375 517.234375 L 347.820312 501.632812 C 355.511719 504.039062 363.417969 505.058594 371.242188 504.796875 L 375.84375 522.257812 C 376.609375 525.15625 379.597656 526.894531 382.488281 526.128906 L 402.722656 520.792969 C 405.625 520.027344 407.367188 517.03125 406.59375 514.148438 L 401.984375 496.683594 C 408.925781 493.0625 415.300781 488.257812 420.800781 482.378906 L 436.390625 491.457031 C 438.984375 492.96875 442.332031 492.085938 443.839844 489.5 L 454.375 471.40625 C 455.882812 468.824219 454.992188 465.476562 452.398438 463.96875 Z M 351.230469 464.175781 C 334.4375 454.394531 328.75 432.851562 338.53125 416.058594 C 348.308594 399.265625 369.855469 393.578125 386.648438 403.359375 C 403.441406 413.140625 409.125 434.683594 399.34375 451.476562 C 389.566406 468.269531 368.023438 473.953125 351.230469 464.175781" fill="#000000"/></g><g id="change2_1"><path d="M 352.488281 462.015625 C 368.0625 471.085938 388.113281 465.792969 397.183594 450.21875 C 401.578125 442.675781 402.773438 433.867188 400.546875 425.425781 C 398.316406 416.984375 392.933594 409.914062 385.390625 405.519531 C 377.847656 401.125 369.042969 399.933594 360.597656 402.160156 C 352.15625 404.390625 345.085938 409.769531 340.691406 417.316406 C 336.296875 424.859375 335.105469 433.664062 337.332031 442.109375 C 339.5625 450.550781 344.941406 457.621094 352.488281 462.015625 Z M 368.875 471.449219 C 362.4375 471.449219 355.921875 469.800781 349.972656 466.335938 C 341.273438 461.269531 335.066406 453.117188 332.496094 443.382812 C 329.929688 433.648438 331.304688 423.5 336.371094 414.800781 C 341.4375 406.101562 349.585938 399.894531 359.320312 397.324219 C 369.054688 394.757812 379.210938 396.132812 387.90625 401.199219 C 396.605469 406.265625 402.808594 414.414062 405.378906 424.148438 C 407.949219 433.882812 406.570312 444.035156 401.503906 452.734375 C 394.511719 464.742188 381.859375 471.449219 368.875 471.449219 Z M 373.152344 502.234375 L 378.261719 521.621094 C 378.460938 522.375 378.945312 523.011719 379.628906 523.40625 C 380.308594 523.804688 381.097656 523.910156 381.847656 523.710938 L 402.085938 518.375 C 402.84375 518.175781 403.484375 517.6875 403.878906 517 C 404.273438 516.324219 404.378906 515.539062 404.179688 514.796875 L 399.058594 495.390625 L 400.828125 494.46875 C 407.621094 490.921875 413.730469 486.277344 418.976562 480.671875 L 420.335938 479.214844 L 437.648438 489.296875 C 438.328125 489.691406 439.121094 489.800781 439.886719 489.597656 C 440.648438 489.394531 441.285156 488.914062 441.679688 488.242188 L 452.214844 470.148438 C 453.03125 468.753906 452.546875 466.945312 451.140625 466.128906 L 433.832031 456.046875 L 434.425781 454.144531 C 436.714844 446.820312 437.742188 439.21875 437.480469 431.546875 L 437.414062 429.550781 L 456.792969 424.445312 C 457.550781 424.246094 458.1875 423.757812 458.585938 423.074219 C 458.980469 422.390625 459.089844 421.601562 458.886719 420.851562 L 453.546875 400.609375 C 453.132812 399.046875 451.523438 398.105469 449.953125 398.519531 L 430.574219 403.632812 L 429.648438 401.867188 C 426.082031 395.066406 421.4375 388.964844 415.84375 383.730469 L 414.386719 382.371094 L 424.476562 365.050781 C 425.292969 363.648438 424.816406 361.84375 423.414062 361.027344 L 405.328125 350.496094 C 403.945312 349.6875 402.105469 350.175781 401.300781 351.554688 L 391.214844 368.875 L 389.3125 368.28125 C 381.996094 365.996094 374.394531 364.960938 366.71875 365.21875 L 364.730469 365.285156 L 359.621094 345.90625 C 359.203125 344.339844 357.589844 343.398438 356.015625 343.808594 L 335.792969 349.15625 C 335.035156 349.355469 334.402344 349.839844 334.003906 350.519531 C 333.605469 351.203125 333.496094 351.996094 333.695312 352.753906 L 338.808594 372.125 L 337.042969 373.050781 C 330.238281 376.617188 324.132812 381.265625 318.902344 386.863281 L 317.542969 388.320312 L 300.222656 378.230469 C 299.546875 377.839844 298.753906 377.730469 297.992188 377.933594 C 297.226562 378.136719 296.59375 378.617188 296.203125 379.285156 L 285.667969 397.378906 C 285.273438 398.050781 285.167969 398.84375 285.367188 399.605469 C 285.570312 400.371094 286.054688 401.007812 286.726562 401.402344 L 304.046875 411.488281 L 303.453125 413.390625 C 301.167969 420.71875 300.136719 428.316406 300.394531 435.976562 L 300.460938 437.96875 L 281.082031 443.09375 C 280.328125 443.289062 279.699219 443.773438 279.300781 444.453125 C 278.902344 445.136719 278.792969 445.929688 278.992188 446.6875 L 284.324219 466.910156 C 284.523438 467.667969 285.007812 468.300781 285.691406 468.699219 C 286.375 469.097656 287.167969 469.207031 287.925781 469.007812 L 307.304688 463.882812 L 308.230469 465.648438 C 311.808594 472.472656 316.453125 478.574219 322.035156 483.796875 L 323.492188 485.15625 L 313.402344 502.480469 C 313.011719 503.148438 312.910156 503.9375 313.113281 504.703125 C 313.316406 505.46875 313.796875 506.105469 314.472656 506.5 L 332.554688 517.03125 C 333.957031 517.847656 335.761719 517.375 336.574219 515.976562 L 346.664062 498.652344 L 348.566406 499.246094 C 355.855469 501.527344 363.460938 502.5625 371.160156 502.300781 Z M 381.09375 528.8125 C 379.710938 528.8125 378.34375 528.445312 377.113281 527.730469 C 375.277344 526.660156 373.964844 524.945312 373.425781 522.894531 L 369.324219 507.335938 C 362.378906 507.371094 355.59375 506.457031 348.992188 504.589844 L 340.894531 518.492188 C 338.691406 522.273438 333.824219 523.554688 330.039062 521.351562 L 311.953125 510.820312 C 310.128906 509.757812 308.824219 508.039062 308.28125 505.984375 C 307.734375 503.925781 308.019531 501.789062 309.082031 499.964844 L 317.179688 486.0625 C 312.292969 481.238281 308.125 475.757812 304.753906 469.730469 L 289.203125 473.84375 C 287.15625 474.382812 285.015625 474.09375 283.175781 473.019531 C 281.339844 471.949219 280.027344 470.234375 279.488281 468.183594 L 274.15625 447.960938 C 273.617188 445.910156 273.910156 443.773438 274.980469 441.9375 C 276.050781 440.101562 277.765625 438.792969 279.808594 438.257812 L 295.355469 434.144531 C 295.3125 427.265625 296.238281 420.445312 298.109375 413.816406 L 284.210938 405.722656 C 282.382812 404.65625 281.074219 402.9375 280.535156 400.882812 C 279.992188 398.828125 280.28125 396.691406 281.347656 394.863281 L 291.882812 376.769531 C 292.945312 374.945312 294.660156 373.640625 296.714844 373.101562 C 298.769531 372.558594 300.910156 372.847656 302.738281 373.910156 L 316.636719 382.007812 C 321.46875 377.109375 326.945312 372.9375 332.964844 369.574219 L 328.863281 354.027344 C 328.320312 351.980469 328.613281 349.84375 329.683594 348.003906 C 330.753906 346.167969 332.472656 344.859375 334.519531 344.320312 L 354.742188 338.972656 C 358.972656 337.863281 363.332031 340.398438 364.457031 344.625 L 368.554688 360.183594 C 375.445312 360.136719 382.265625 361.066406 388.886719 362.9375 L 396.980469 349.039062 C 399.1875 345.253906 404.058594 343.96875 407.84375 346.175781 L 425.929688 356.707031 C 429.714844 358.910156 431 363.785156 428.796875 367.566406 L 420.699219 381.46875 C 425.59375 386.300781 429.761719 391.777344 433.125 397.789062 L 448.679688 393.683594 C 452.917969 392.570312 457.265625 395.105469 458.378906 399.332031 L 463.722656 419.570312 C 464.261719 421.609375 463.976562 423.746094 462.90625 425.585938 C 461.839844 427.425781 460.121094 428.738281 458.070312 429.277344 L 442.519531 433.378906 C 442.566406 440.265625 441.644531 447.09375 439.769531 453.71875 L 453.660156 461.808594 C 457.445312 464.015625 458.738281 468.886719 456.535156 472.664062 L 446 490.757812 C 444.933594 492.585938 443.214844 493.890625 441.160156 494.433594 C 439.101562 494.972656 436.964844 494.683594 435.132812 493.617188 L 421.242188 485.527344 C 416.398438 490.429688 410.917969 494.597656 404.90625 497.949219 L 409.011719 513.511719 C 409.554688 515.539062 409.269531 517.671875 408.207031 519.507812 C 407.136719 521.351562 405.417969 522.667969 403.363281 523.210938 L 383.128906 528.542969 C 382.453125 528.722656 381.773438 528.8125 381.09375 528.8125" fill="#000000"/></g><g id="change3_1"><path d="M 489.503906 246.300781 L 466.984375 233.183594 C 470.460938 222.0625 471.945312 210.636719 471.5625 199.339844 L 496.769531 192.695312 C 500.960938 191.589844 503.480469 187.265625 502.367188 183.085938 L 494.652344 153.851562 C 493.550781 149.675781 489.234375 147.160156 485.054688 148.257812 L 459.839844 154.914062 C 454.585938 144.902344 447.660156 135.707031 439.164062 127.753906 L 452.285156 105.222656 C 454.460938 101.488281 453.179688 96.648438 449.449219 94.472656 L 423.320312 79.257812 C 419.59375 77.085938 414.746094 78.355469 412.570312 82.09375 L 399.445312 104.621094 C 388.335938 101.15625 376.914062 99.667969 365.613281 100.039062 L 358.972656 74.828125 C 357.859375 70.648438 353.53125 68.128906 349.351562 69.226562 L 320.132812 76.953125 C 315.949219 78.050781 313.433594 82.375 314.535156 86.5625 L 321.183594 111.761719 C 311.179688 117.007812 301.96875 123.941406 294.019531 132.449219 L 271.488281 119.324219 C 267.746094 117.144531 262.914062 118.429688 260.746094 122.152344 L 245.523438 148.289062 C 243.347656 152.023438 244.617188 156.855469 248.359375 159.035156 L 270.890625 172.160156 C 267.425781 183.273438 265.933594 194.695312 266.308594 205.984375 L 241.101562 212.652344 C 236.933594 213.742188 234.40625 218.066406 235.507812 222.253906 L 243.214844 251.46875 C 244.316406 255.65625 248.644531 258.179688 252.832031 257.070312 L 278.039062 250.402344 C 283.292969 260.421875 290.214844 269.632812 298.71875 277.578125 L 285.59375 300.117188 C 283.421875 303.839844 284.710938 308.6875 288.4375 310.859375 L 314.5625 326.074219 C 318.296875 328.246094 323.136719 326.972656 325.308594 323.246094 L 338.433594 300.710938 C 349.539062 304.183594 360.964844 305.65625 372.265625 305.28125 L 378.914062 330.503906 C 380.015625 334.691406 384.332031 337.203125 388.515625 336.09375 L 417.742188 328.386719 C 421.933594 327.28125 424.453125 322.953125 423.335938 318.785156 L 416.679688 293.558594 C 426.699219 288.324219 435.910156 281.386719 443.859375 272.894531 L 466.378906 286.011719 C 470.121094 288.191406 474.960938 286.917969 477.140625 283.179688 L 492.359375 257.046875 C 494.535156 253.3125 493.25 248.480469 489.503906 246.300781 Z M 343.355469 246.597656 C 319.097656 232.472656 310.882812 201.347656 325.011719 177.089844 C 339.140625 152.832031 370.265625 144.617188 394.523438 158.746094 C 418.78125 172.871094 426.992188 203.996094 412.863281 228.253906 C 398.734375 252.511719 367.613281 260.726562 343.355469 246.597656" fill="#000000"/></g><g id="change2_2"><path d="M 369.019531 154.347656 C 352.367188 154.347656 336.140625 162.949219 327.171875 178.347656 C 320.675781 189.503906 318.910156 202.519531 322.207031 215.003906 C 325.5 227.488281 333.460938 237.941406 344.613281 244.4375 C 355.769531 250.933594 368.789062 252.695312 381.269531 249.402344 C 393.753906 246.109375 404.207031 238.152344 410.703125 226.996094 C 424.117188 203.964844 416.292969 174.316406 393.265625 160.90625 C 385.632812 156.460938 377.273438 154.347656 369.019531 154.347656 Z M 368.847656 256.027344 C 359.539062 256.027344 350.355469 253.570312 342.097656 248.757812 C 329.789062 241.589844 321.007812 230.054688 317.371094 216.28125 C 313.734375 202.507812 315.679688 188.140625 322.851562 175.832031 C 337.652344 150.417969 370.367188 141.785156 395.78125 156.585938 C 408.089844 163.753906 416.871094 175.289062 420.503906 189.0625 C 424.140625 202.839844 422.191406 217.203125 415.023438 229.511719 C 407.855469 241.820312 396.320312 250.601562 382.546875 254.238281 C 378.011719 255.433594 373.414062 256.027344 368.847656 256.027344 Z M 374.175781 302.71875 L 381.332031 329.863281 C 381.695312 331.246094 382.578125 332.402344 383.820312 333.125 C 385.058594 333.84375 386.496094 334.042969 387.871094 333.675781 L 417.105469 325.96875 C 418.488281 325.605469 419.652344 324.71875 420.375 323.46875 C 421.09375 322.230469 421.285156 320.796875 420.921875 319.433594 L 413.753906 292.269531 L 415.519531 291.34375 C 425.445312 286.160156 434.363281 279.378906 442.03125 271.1875 L 443.394531 269.730469 L 467.636719 283.851562 C 468.871094 284.570312 470.316406 284.761719 471.710938 284.398438 C 473.101562 284.03125 474.261719 283.152344 474.976562 281.921875 L 490.199219 255.789062 C 491.683594 253.238281 490.808594 249.949219 488.246094 248.460938 L 464.003906 234.339844 L 464.601562 232.4375 C 467.941406 221.738281 469.445312 210.632812 469.0625 199.425781 L 468.996094 197.433594 L 496.132812 190.277344 C 497.515625 189.914062 498.675781 189.027344 499.398438 187.78125 C 500.121094 186.539062 500.316406 185.101562 499.949219 183.730469 L 492.234375 154.488281 C 491.480469 151.636719 488.542969 149.925781 485.6875 150.675781 L 458.550781 157.839844 L 457.625 156.074219 C 452.414062 146.140625 445.628906 137.226562 437.453125 129.578125 L 436 128.21875 L 450.125 103.964844 C 451.613281 101.410156 450.746094 98.121094 448.1875 96.632812 L 422.0625 81.417969 C 419.507812 79.929688 416.21875 80.796875 414.730469 83.351562 L 400.605469 107.601562 L 398.703125 107.011719 C 388.011719 103.675781 376.902344 102.167969 365.695312 102.535156 L 363.707031 102.601562 L 356.554688 75.464844 C 355.792969 72.613281 352.847656 70.894531 349.988281 71.644531 L 320.769531 79.371094 C 319.390625 79.730469 318.234375 80.613281 317.511719 81.855469 C 316.789062 83.101562 316.589844 84.546875 316.953125 85.925781 L 324.109375 113.050781 L 322.347656 113.976562 C 312.402344 119.1875 303.488281 125.976562 295.847656 134.15625 L 294.484375 135.613281 L 270.230469 121.484375 C 269 120.769531 267.558594 120.574219 266.164062 120.941406 C 264.777344 121.308594 263.621094 122.1875 262.90625 123.410156 L 247.683594 149.546875 C 246.195312 152.101562 247.066406 155.390625 249.617188 156.878906 L 273.871094 171 L 273.277344 172.902344 C 269.941406 183.605469 268.4375 194.707031 268.808594 205.902344 L 268.875 207.890625 L 241.738281 215.070312 C 240.367188 215.429688 239.214844 216.308594 238.488281 217.550781 C 237.761719 218.792969 237.5625 220.238281 237.925781 221.617188 L 245.632812 250.832031 C 245.996094 252.214844 246.878906 253.371094 248.125 254.097656 C 249.367188 254.820312 250.8125 255.019531 252.195312 254.65625 L 279.328125 247.476562 L 280.253906 249.242188 C 285.480469 259.210938 292.265625 268.128906 300.425781 275.753906 L 301.882812 277.113281 L 287.753906 301.375 C 287.039062 302.597656 286.851562 304.039062 287.21875 305.429688 C 287.589844 306.820312 288.46875 307.984375 289.695312 308.699219 L 315.820312 323.914062 C 318.375 325.398438 321.660156 324.539062 323.148438 321.988281 L 337.277344 297.726562 L 339.179688 298.324219 C 349.828125 301.65625 360.9375 303.164062 372.183594 302.78125 Z M 386.496094 338.859375 C 384.695312 338.859375 382.910156 338.382812 381.304688 337.445312 C 378.90625 336.050781 377.199219 333.8125 376.496094 331.140625 L 370.351562 307.828125 C 359.894531 307.984375 349.566406 306.585938 339.601562 303.675781 L 327.46875 324.503906 C 324.597656 329.4375 318.242188 331.109375 313.304688 328.234375 L 287.179688 313.019531 C 284.800781 311.632812 283.097656 309.390625 282.386719 306.710938 C 281.675781 304.023438 282.046875 301.234375 283.433594 298.855469 L 295.5625 278.027344 C 288.109375 270.789062 281.800781 262.496094 276.773438 253.324219 L 253.472656 259.488281 C 250.796875 260.195312 248.007812 259.8125 245.609375 258.417969 C 243.210938 257.019531 241.5 254.777344 240.796875 252.105469 L 233.089844 222.890625 C 232.386719 220.21875 232.769531 217.425781 234.171875 215.027344 C 235.570312 212.632812 237.804688 210.933594 240.464844 210.234375 L 263.761719 204.070312 C 263.613281 193.65625 265.011719 183.335938 267.929688 173.324219 L 247.101562 161.195312 C 242.167969 158.320312 240.488281 151.96875 243.363281 147.03125 L 258.585938 120.894531 C 259.96875 118.515625 262.210938 116.816406 264.890625 116.109375 C 267.570312 115.402344 270.359375 115.777344 272.746094 117.164062 L 293.570312 129.292969 C 300.824219 121.824219 309.113281 115.511719 318.265625 110.488281 L 312.117188 87.199219 C 311.414062 84.527344 311.796875 81.738281 313.191406 79.339844 C 314.589844 76.941406 316.828125 75.234375 319.496094 74.535156 L 348.714844 66.808594 C 354.238281 65.363281 359.921875 68.671875 361.386719 74.1875 L 367.527344 97.492188 C 377.957031 97.351562 388.28125 98.746094 398.28125 101.660156 L 410.410156 80.835938 C 413.285156 75.898438 419.640625 74.222656 424.578125 77.097656 L 450.707031 92.3125 C 455.644531 95.1875 457.320312 101.546875 454.445312 106.480469 L 442.316406 127.308594 C 449.78125 134.5625 456.089844 142.851562 461.109375 151.992188 L 484.414062 145.84375 C 489.9375 144.390625 495.613281 147.699219 497.070312 153.210938 L 504.785156 182.449219 C 505.492188 185.109375 505.113281 187.894531 503.722656 190.292969 C 502.328125 192.695312 500.085938 194.40625 497.410156 195.113281 L 474.109375 201.253906 C 474.265625 211.679688 472.871094 222.011719 469.949219 232.015625 L 490.761719 244.140625 C 495.707031 247.015625 497.390625 253.371094 494.519531 258.304688 L 479.296875 284.4375 C 477.910156 286.824219 475.667969 288.527344 472.980469 289.230469 C 470.300781 289.9375 467.507812 289.5625 465.121094 288.171875 L 444.304688 276.046875 C 437.03125 283.53125 428.738281 289.835938 419.601562 294.832031 L 425.753906 318.148438 C 426.460938 320.796875 426.089844 323.578125 424.699219 325.976562 C 423.304688 328.382812 421.0625 330.097656 418.382812 330.804688 L 389.152344 338.511719 C 388.273438 338.742188 387.382812 338.859375 386.496094 338.859375" fill="#000000"/></g><g id="change4_1"><path d="M 290.710938 332.164062 L 270.871094 332.164062 C 268.894531 323.515625 265.496094 315.429688 260.914062 308.148438 L 274.953125 294.117188 C 277.285156 291.785156 277.285156 287.976562 274.953125 285.652344 L 258.675781 269.371094 C 256.351562 267.050781 252.546875 267.050781 250.21875 269.371094 L 236.179688 283.410156 C 228.886719 278.839844 220.808594 275.441406 212.171875 273.464844 L 212.171875 253.617188 C 212.171875 250.324219 209.476562 247.632812 206.1875 247.632812 L 183.167969 247.632812 C 179.886719 247.632812 177.179688 250.324219 177.179688 253.617188 L 177.179688 273.464844 C 168.542969 275.441406 160.460938 278.839844 153.167969 283.410156 L 139.136719 269.371094 C 136.804688 267.050781 132.992188 267.050781 130.664062 269.371094 L 114.398438 285.652344 C 112.070312 287.976562 112.070312 291.785156 114.398438 294.117188 L 128.429688 308.148438 C 123.855469 315.429688 120.453125 323.523438 118.484375 332.164062 L 98.636719 332.164062 C 95.339844 332.164062 92.648438 334.859375 92.648438 338.140625 L 92.648438 361.164062 C 92.648438 364.457031 95.339844 367.148438 98.636719 367.148438 L 118.484375 367.148438 C 120.460938 375.789062 123.855469 383.875 128.429688 391.160156 L 114.398438 405.203125 C 112.078125 407.519531 112.070312 411.328125 114.398438 413.660156 L 130.664062 429.929688 C 132.992188 432.265625 136.804688 432.265625 139.136719 429.929688 L 153.167969 415.886719 C 160.460938 420.464844 168.542969 423.871094 177.179688 425.839844 L 177.179688 445.695312 C 177.179688 448.976562 179.886719 451.671875 183.167969 451.671875 L 206.1875 451.671875 C 209.476562 451.671875 212.171875 448.976562 212.171875 445.695312 L 212.171875 425.839844 C 220.808594 423.871094 228.886719 420.464844 236.179688 415.886719 L 250.21875 429.929688 C 252.546875 432.265625 256.351562 432.265625 258.675781 429.929688 L 274.953125 413.660156 C 277.285156 411.328125 277.285156 407.519531 274.953125 405.203125 L 260.90625 391.160156 C 265.496094 383.875 268.894531 375.78125 270.871094 367.148438 L 290.710938 367.148438 C 294.007812 367.148438 296.703125 364.457031 296.703125 361.164062 L 296.703125 338.140625 C 296.703125 334.851562 294.007812 332.164062 290.710938 332.164062 Z M 194.675781 388.355469 C 173.304688 388.355469 155.976562 371.03125 155.976562 349.65625 C 155.976562 328.285156 173.304688 310.957031 194.675781 310.957031 C 216.050781 310.957031 233.375 328.285156 233.375 349.65625 C 233.375 371.03125 216.050781 388.355469 194.675781 388.355469" fill="#000000"/></g><g id="change2_3"><path d="M 194.675781 313.457031 C 174.714844 313.457031 158.476562 329.695312 158.476562 349.65625 C 158.476562 369.617188 174.714844 385.855469 194.675781 385.855469 C 214.636719 385.855469 230.875 369.617188 230.875 349.65625 C 230.875 329.695312 214.636719 313.457031 194.675781 313.457031 Z M 194.675781 390.855469 C 171.960938 390.855469 153.476562 372.375 153.476562 349.65625 C 153.476562 326.941406 171.960938 308.457031 194.675781 308.457031 C 217.394531 308.457031 235.875 326.941406 235.875 349.65625 C 235.875 372.375 217.394531 390.855469 194.675781 390.855469 Z M 152.808594 412.707031 L 154.496094 413.769531 C 161.691406 418.285156 169.511719 421.527344 177.738281 423.402344 L 179.679688 423.847656 L 179.679688 445.695312 C 179.679688 447.582031 181.277344 449.175781 183.167969 449.175781 L 206.1875 449.175781 C 208.105469 449.175781 209.671875 447.613281 209.671875 445.695312 L 209.671875 423.847656 L 211.613281 423.402344 C 219.835938 421.53125 227.652344 418.289062 234.851562 413.769531 L 236.539062 412.707031 L 251.984375 428.164062 C 252.640625 428.820312 253.515625 429.179688 254.449219 429.179688 C 255.382812 429.179688 256.253906 428.820312 256.902344 428.167969 L 273.183594 411.894531 C 273.839844 411.234375 274.203125 410.355469 274.199219 409.421875 C 274.199219 408.488281 273.839844 407.625 273.191406 406.980469 L 257.726562 391.515625 L 258.789062 389.824219 C 263.296875 382.671875 266.542969 374.855469 268.433594 366.59375 L 268.878906 364.648438 L 290.710938 364.648438 C 292.636719 364.648438 294.203125 363.085938 294.203125 361.164062 L 294.203125 338.140625 C 294.203125 336.222656 292.636719 334.664062 290.710938 334.664062 L 268.878906 334.664062 L 268.433594 332.722656 C 266.546875 324.46875 263.304688 316.648438 258.796875 309.476562 L 257.734375 307.789062 L 273.183594 292.347656 C 273.839844 291.691406 274.203125 290.816406 274.199219 289.878906 C 274.199219 288.945312 273.839844 288.074219 273.1875 287.421875 L 256.90625 271.140625 C 255.550781 269.785156 253.339844 269.789062 251.980469 271.144531 L 236.539062 286.589844 L 234.851562 285.53125 C 227.671875 281.027344 219.855469 277.789062 211.613281 275.902344 L 209.671875 275.457031 L 209.671875 253.617188 C 209.671875 251.695312 208.105469 250.132812 206.1875 250.132812 L 183.167969 250.132812 C 181.246094 250.132812 179.679688 251.695312 179.679688 253.617188 L 179.679688 275.457031 L 177.738281 275.902344 C 169.492188 277.789062 161.671875 281.027344 154.496094 285.53125 L 152.808594 286.589844 L 137.371094 271.140625 C 136.007812 269.785156 133.789062 269.785156 132.429688 271.144531 L 116.167969 287.417969 C 115.511719 288.074219 115.152344 288.945312 115.152344 289.882812 C 115.152344 290.816406 115.515625 291.695312 116.171875 292.351562 L 131.605469 307.789062 L 130.546875 309.476562 C 126.039062 316.65625 122.800781 324.476562 120.921875 332.71875 L 120.480469 334.664062 L 98.632812 334.664062 C 96.714844 334.664062 95.148438 336.222656 95.148438 338.140625 L 95.148438 361.164062 C 95.148438 363.085938 96.714844 364.648438 98.632812 364.648438 L 120.476562 364.648438 L 120.921875 366.59375 C 122.8125 374.847656 126.050781 382.667969 130.546875 389.828125 L 131.605469 391.515625 L 116.167969 406.972656 C 115.515625 407.621094 115.15625 408.492188 115.15625 409.425781 C 115.15625 410.363281 115.515625 411.238281 116.167969 411.894531 L 132.433594 428.164062 C 133.742188 429.476562 136.058594 429.476562 137.371094 428.164062 Z M 206.1875 454.175781 L 183.167969 454.175781 C 178.488281 454.175781 174.679688 450.371094 174.679688 445.695312 L 174.679688 427.808594 C 167.261719 425.921875 160.167969 422.980469 153.546875 419.046875 L 140.90625 431.699219 C 139.304688 433.300781 137.171875 434.179688 134.898438 434.179688 C 132.628906 434.179688 130.496094 433.300781 128.894531 431.699219 L 112.632812 415.429688 C 111.03125 413.828125 110.152344 411.695312 110.15625 409.421875 C 110.160156 407.152344 111.039062 405.023438 112.636719 403.433594 L 125.269531 390.785156 C 121.351562 384.1875 118.414062 377.09375 116.519531 369.648438 L 98.632812 369.648438 C 93.957031 369.648438 90.148438 365.84375 90.148438 361.164062 L 90.148438 338.140625 C 90.148438 333.46875 93.957031 329.664062 98.632812 329.664062 L 116.515625 329.664062 C 118.40625 322.230469 121.34375 315.136719 125.269531 308.523438 L 112.632812 295.886719 C 111.03125 294.285156 110.152344 292.152344 110.152344 289.882812 C 110.152344 287.609375 111.035156 285.476562 112.632812 283.882812 L 128.894531 267.605469 C 132.207031 264.304688 137.59375 264.304688 140.902344 267.601562 L 153.546875 280.253906 C 160.152344 276.332031 167.246094 273.394531 174.679688 271.496094 L 174.679688 253.617188 C 174.679688 248.9375 178.488281 245.132812 183.167969 245.132812 L 206.1875 245.132812 C 210.863281 245.132812 214.671875 248.9375 214.671875 253.617188 L 214.671875 271.496094 C 222.101562 273.394531 229.195312 276.332031 235.800781 280.253906 L 248.449219 267.605469 C 251.757812 264.304688 257.140625 264.304688 260.441406 267.605469 L 276.71875 283.882812 C 278.316406 285.472656 279.199219 287.601562 279.199219 289.871094 C 279.203125 292.148438 278.320312 294.28125 276.71875 295.886719 L 264.074219 308.523438 C 268.003906 315.125 270.941406 322.222656 272.835938 329.664062 L 290.710938 329.664062 C 295.394531 329.664062 299.203125 333.46875 299.203125 338.140625 L 299.203125 361.164062 C 299.203125 365.84375 295.394531 369.648438 290.710938 369.648438 L 272.835938 369.648438 C 270.9375 377.101562 267.996094 384.191406 264.066406 390.785156 L 276.71875 403.4375 C 278.3125 405.015625 279.195312 407.140625 279.199219 409.410156 C 279.207031 411.6875 278.324219 413.824219 276.71875 415.429688 L 260.441406 431.699219 C 258.851562 433.296875 256.722656 434.179688 254.453125 434.179688 C 254.449219 434.179688 254.449219 434.179688 254.449219 434.179688 C 252.175781 434.179688 250.046875 433.300781 248.449219 431.699219 L 235.800781 419.046875 C 229.179688 422.980469 222.089844 425.921875 214.671875 427.808594 L 214.671875 445.695312 C 214.671875 450.371094 210.863281 454.175781 206.1875 454.175781" fill="#000000"/></g></g></svg>