<?xml version="1.0" encoding="UTF-8" standalone="no"?><svg xmlns="http://www.w3.org/2000/svg" xmlns:xlink="http://www.w3.org/1999/xlink" fill="#000000" widht="23px" height="25px" preserveAspectRatio="xMidYMid meet" version="1" viewBox="60.4 50.9 304.4 323.3"  zoomAndPan="magnify"><g><g id="change1_1"><path d="M 239.355469 320.503906 C 239.355469 335.28125 227.375 347.261719 212.597656 347.261719 C 197.824219 347.261719 185.84375 335.28125 185.84375 320.503906 C 185.84375 305.730469 197.824219 255.328125 212.597656 255.328125 C 227.375 255.328125 239.355469 305.730469 239.355469 320.503906" fill="#0e2d3d"/></g><path d="M 2393.554688 1046.960938 C 2393.554688 899.1875 2273.75 779.382812 2125.976562 779.382812 C 1978.242188 779.382812 1858.4375 899.1875 1858.4375 1046.960938 C 1858.4375 1194.695312 1978.242188 1698.71875 2125.976562 1698.71875 C 2273.75 1698.71875 2393.554688 1194.695312 2393.554688 1046.960938 Z M 2393.554688 1046.960938" fill="none" stroke="#231f20" stroke-linejoin="round" stroke-miterlimit="10" stroke-width="30" transform="matrix(.1 0 0 -.1 0 425.2)"/><g id="change1_2"><path d="M 349.753906 66.089844 C 344.714844 60.875 338.121094 58.125 330.691406 58.125 L 94.507812 58.125 C 87.078125 58.125 80.484375 60.875 75.441406 66.089844 C 62.007812 79.980469 62.933594 107.519531 63.90625 136.679688 C 64.128906 143.335938 64.339844 149.613281 64.339844 155.351562 C 64.339844 195.851562 129.167969 249.707031 171.46875 254.277344 L 174.234375 228.648438 C 142.003906 225.167969 90.113281 179.953125 90.113281 155.351562 C 90.113281 149.183594 89.902344 142.691406 89.667969 135.816406 C 89.191406 121.550781 88.074219 88.140625 94 83.941406 C 94 83.941406 94.144531 83.894531 94.507812 83.894531 L 330.691406 83.894531 C 330.964844 83.898438 331.121094 83.917969 331.128906 83.914062 C 337.121094 88.242188 336.003906 121.574219 335.527344 135.816406 C 335.296875 142.691406 335.082031 149.183594 335.082031 155.351562 C 335.082031 179.953125 283.195312 225.167969 250.957031 228.648438 L 253.730469 254.277344 C 296.027344 249.707031 360.855469 195.851562 360.855469 155.351562 C 360.855469 149.613281 361.066406 143.335938 361.292969 136.679688 C 362.265625 107.519531 363.1875 79.980469 349.753906 66.089844" fill="#0e2d3d"/></g><path d="M 3497.539062 3591.101562 C 3447.148438 3643.25 3381.210938 3670.75 3306.914062 3670.75 L 945.078125 3670.75 C 870.78125 3670.75 804.84375 3643.25 754.414062 3591.101562 C 620.078125 3452.195312 629.335938 3176.804688 639.0625 2885.203125 C 641.289062 2818.640625 643.398438 2755.867188 643.398438 2698.484375 C 643.398438 2293.484375 1291.679688 1754.929688 1714.6875 1709.226562 L 1742.34375 1965.515625 C 1420.039062 2000.320312 901.132812 2452.46875 901.132812 2698.484375 C 901.132812 2760.164062 899.023438 2825.085938 896.679688 2893.835938 C 891.914062 3036.492188 880.742188 3370.59375 940 3412.585938 C 940 3412.585938 941.445312 3413.054688 945.078125 3413.054688 L 3306.914062 3413.054688 C 3309.648438 3413.015625 3311.210938 3412.820312 3311.289062 3412.859375 C 3371.210938 3369.578125 3360.039062 3036.257812 3355.273438 2893.835938 C 3352.96875 2825.085938 3350.820312 2760.164062 3350.820312 2698.484375 C 3350.820312 2452.46875 2831.953125 2000.320312 2509.570312 1965.515625 L 2537.304688 1709.226562 C 2960.273438 1754.929688 3608.554688 2293.484375 3608.554688 2698.484375 C 3608.554688 2755.867188 3610.664062 2818.640625 3612.929688 2885.203125 C 3622.65625 3176.804688 3631.875 3452.195312 3497.539062 3591.101562 Z M 3497.539062 3591.101562" fill="none" stroke="#231f20" stroke-linejoin="round" stroke-miterlimit="10" stroke-width="30" transform="matrix(.1 0 0 -.1 0 425.2)"/><g id="change1_3"><path d="M 296.703125 52.429688 L 128.496094 52.429688 C 125.3125 52.429688 122.734375 55.007812 122.734375 58.191406 L 122.734375 135.378906 C 122.734375 135.621094 122.753906 135.855469 122.78125 136.09375 C 124.273438 227.980469 163.910156 301.605469 212.597656 301.605469 C 261.28125 301.605469 300.925781 227.980469 302.414062 136.09375 C 302.441406 135.855469 302.460938 135.621094 302.460938 135.378906 L 302.460938 58.191406 C 302.460938 55.007812 299.882812 52.429688 296.703125 52.429688" fill="#0e2d3d"/></g><path d="M 2967.03125 3727.703125 L 1284.960938 3727.703125 C 1253.125 3727.703125 1227.34375 3701.921875 1227.34375 3670.085938 L 1227.34375 2898.210938 C 1227.34375 2895.789062 1227.539062 2893.445312 1227.8125 2891.0625 C 1242.734375 1972.195312 1639.101562 1235.945312 2125.976562 1235.945312 C 2612.8125 1235.945312 3009.257812 1972.195312 3024.140625 2891.0625 C 3024.414062 2893.445312 3024.609375 2895.789062 3024.609375 2898.210938 L 3024.609375 3670.085938 C 3024.609375 3701.921875 2998.828125 3727.703125 2967.03125 3727.703125 Z M 2967.03125 3727.703125" fill="none" stroke="#231f20" stroke-linejoin="round" stroke-miterlimit="10" stroke-width="30" transform="matrix(.1 0 0 -.1 0 425.2)"/><g id="change1_4"><path d="M 280.128906 372.769531 L 280.128906 342.632812 C 280.128906 335.171875 274.085938 329.128906 266.621094 329.128906 L 158.574219 329.128906 C 151.113281 329.128906 145.066406 335.171875 145.066406 342.632812 L 145.066406 372.769531 L 280.128906 372.769531" fill="#0e2d3d"/></g><path d="M 2801.289062 524.304688 L 2801.289062 825.671875 C 2801.289062 900.28125 2740.859375 960.710938 2666.210938 960.710938 L 1585.742188 960.710938 C 1511.132812 960.710938 1450.664062 900.28125 1450.664062 825.671875 L 1450.664062 524.304688 Z M 2801.289062 524.304688" fill="none" stroke="#231f20" stroke-linejoin="round" stroke-miterlimit="10" stroke-width="30" transform="matrix(.1 0 0 -.1 0 425.2)"/></g></svg>