<?xml version="1.0" encoding="UTF-8"?><svg xmlns="http://www.w3.org/2000/svg" xmlns:xlink="http://www.w3.org/1999/xlink" height="25" preserveAspectRatio="xMidYMid meet" version="1.0" viewBox="19.8 5.8 60.5 88.4" width="23" zoomAndPan="magnify"><g id="change1_1"><path d="M50,5.79c-16.67,0-30.23,13.56-30.23,30.23c0,10.92,5.83,20.51,14.54,25.82l0.89,22.34c0.1,2.57,2.08,4.71,4.57,5.11 c0.94,2.81,5.16,4.93,10.23,4.93c5.04,0,9.24-2.09,10.21-4.87c2.75-0.14,5.02-2.41,5.11-5.18l0.77-22.58 c8.48-5.36,14.13-14.82,14.13-25.57C80.23,19.35,66.67,5.79,50,5.79z M60.4,85.28c0,0.02-0.05,0.08-0.1,0.08H40.27 c-0.05,0-0.12-0.07-0.12-0.1l0-0.12l20.39-3.93L60.4,85.28z M60.6,79.25L40.07,83.2l-0.11-2.82l20.73-3.99L60.6,79.25z M60.76,74.42l-20.87,4.02l-0.11-2.82l21.07-4.06L60.76,74.42z M65.68,39.18l-9.1,16.31l-0.52,13.75h4.87l-0.01,0.35L39.7,73.69 l-0.17-4.44h4.4L43.42,55.5l-9.11-16.31c-0.24-0.42-0.14-0.93,0.18-1.26c0.06-0.07,0.14-0.13,0.21-0.18c0.01,0,0.01-0.01,0.02-0.02 c0,0,0.01,0,0.01,0c0.16-0.1,0.35-0.18,0.56-0.18h29.14c0.11,0,0.2,0.03,0.3,0.06c0.18,0,0.36,0.03,0.53,0.12 C65.79,38,65.97,38.66,65.68,39.18z"/></g></svg>